<svg width="1024" height="1024" viewBox="0 0 1024 1024" fill="none" xmlns="http://www.w3.org/2000/svg">
    <rect width="1024" height="1024" rx="150" fill="url(#paint0_linear_29_4)"/>
    <path
        d="M761.5 449.25C761.5 604.657 589.099 766.507 531.206 816.494C525.813 820.549 519.248 822.742 512.5 822.742C505.752 822.742 499.187 820.549 493.794 816.494C435.901 766.507 263.5 604.657 263.5 449.25C263.5 383.211 289.734 319.877 336.43 273.18C383.127 226.484 446.461 200.25 512.5 200.25C578.539 200.25 641.873 226.484 688.57 273.18C735.266 319.877 761.5 383.211 761.5 449.25Z"
        stroke="white" stroke-width="30" stroke-linecap="round" stroke-linejoin="round"/>
    <path
        d="M512.5 542.625C564.07 542.625 605.875 500.82 605.875 449.25C605.875 397.68 564.07 355.875 512.5 355.875C460.93 355.875 419.125 397.68 419.125 449.25C419.125 500.82 460.93 542.625 512.5 542.625Z"
        stroke="white" stroke-width="30" stroke-linecap="round" stroke-linejoin="round"/>
    <defs>
        <linearGradient id="paint0_linear_29_4" x1="512" y1="0" x2="512" y2="1024" gradientUnits="userSpaceOnUse">
            <stop stop-color="#7F22FE"/>
            <stop offset="1" stop-color="#2F0C68"/>
        </linearGradient>
    </defs>
</svg>
